Coordinates
version=1
nRows=7
nColumns=46
inDegrees=yes

Units are S.I. units (second, meters, Newtons, ...)
Angles are in degrees.

endheader
time	pelvis_tilt	pelvis_list	pelvis_rotation	pelvis_tx	pelvis_ty	pelvis_tz	bb_angle	bb_tx	bb_ty	bb_tz	hip_flexion_r	hip_adduction_r	hip_rotation_r	knee_angle_r	knee_angle_r_beta	ankle_angle_r	subtalar_angle_r	mtp_angle_r	crank_angle_r	hip_flexion_l	hip_adduction_l	hip_rotation_l	knee_angle_l	knee_angle_l_beta	ankle_angle_l	subtalar_angle_l	mtp_angle_l	crank_angle_l	lumbar_extension	lumbar_bending	lumbar_rotation	arm_flex_r	arm_add_r	arm_rot_r	elbow_flex_r	pro_sup_r	wrist_flex_r	wrist_dev_r	arm_flex_l	arm_add_l	arm_rot_l	elbow_flex_l	pro_sup_l	wrist_flex_l	wrist_dev_l
      7.50500000	    -32.28628283	      1.20987252	      1.93079193	      0.36455832	      1.20564435	     -0.21995554	      0.00000000	      0.50000000	      0.00000000	      0.25000000	     65.18867267	     -3.44636952	      0.20425953	     80.75590478	      1.40945643	    -29.11651503	    -15.58181670	      0.00000000	      0.00000000	     64.04542982	     -1.35355202	      3.42063728	     50.67322613	      0.88441464	     -4.85836430	    -11.70027146	      0.00000000	      0.00000000	    -62.93003291	      3.47303359	     -3.81934213	     69.17636700	    -12.07411781	     28.33119959	     82.61071929	     58.22092766	      0.00000000	      0.00000000	     52.24849346	    -42.60068453	     14.68113399	    102.87780805	     54.33923540	      0.00000000	      0.00000000
      7.51000000	    -32.32234968	      0.67488397	      1.57600477	      0.36391611	      1.20442305	     -0.22060291	      0.00000000	      0.50000000	      0.00000000	      0.25000000	     66.42415570	     -2.88209579	     -0.02106298	     82.76826374	      1.44457872	    -28.13337143	    -15.95676622	      0.00000000	      0.00000000	     62.61745364	     -2.04831430	      3.41712412	     48.29614618	      0.84292677	     -5.53427220	    -11.12260126	      0.00000000	      0.00000000	    -62.80778230	      3.86107287	     -3.12936578	     69.40697566	    -12.00288491	     28.36244770	     82.60934157	     58.22572903	      0.00000000	      0.00000000	     51.88282656	    -42.68357085	     14.67713983	    102.82219467	     54.33870841	      0.00000000	      0.00000000
      7.51500000	    -32.15962293	      0.47210809	      1.29073839	      0.36353736	      1.20366330	     -0.22147964	      0.00000000	      0.50000000	      0.00000000	      0.25000000	     67.50275551	     -2.65606665	     -0.02076232	     84.85100992	      1.48092950	    -26.73777708	    -15.69291870	      0.00000000	      0.00000000	     60.86728290	     -2.44486332	      3.08985090	     45.81324087	      0.79959189	     -6.42598057	    -10.87487410	      0.00000000	      0.00000000	    -62.90200326	      4.15142610	     -2.79394464	     69.74333543	    -12.05655460	     28.77849658	     82.49149963	     58.26625711	      0.00000000	      0.00000000	     51.43689476	    -42.53655515	     14.39057132	    102.73211904	     54.30658090	      0.00000000	      0.00000000
      7.52000000	    -32.02514364	      0.18899068	      1.12466020	      0.36287743	      1.20266290	     -0.22215128	      0.00000000	      0.50000000	      0.00000000	      0.25000000	     68.61943336	     -2.38504812	     -0.08216629	     86.88061537	      1.51635279	    -25.36284667	    -15.73534531	      0.00000000	      0.00000000	     59.20339913	     -2.79316503	      2.92679296	     43.39514977	      0.75738824	     -7.38120122	    -10.56888668	      0.00000000	      0.00000000	    -62.91249574	      4.56968596	     -2.41677564	     70.17524459	    -12.12029254	     29.33808248	     82.35748112	     58.31957845	      0.00000000	      0.00000000	     51.06634948	    -42.50398882	     14.14692687	    102.65068022	     54.28081501	      0.00000000	      0.00000000
      7.52500000	    -31.95381850	     -0.18289340	      0.83928506	      0.36217097	      1.20158492	     -0.22305443	      0.00000000	      0.50000000	      0.00000000	      0.25000000	     69.79279741	     -2.03882655	     -0.23593236	     88.79546069	      1.54977315	    -23.91579025	    -15.66723010	      0.00000000	      0.00000000	     57.65004656	     -3.27147929	      2.71051086	     41.08838354	      0.71712758	     -8.41742680	    -10.46743435	      0.00000000	      0.00000000	    -62.91632783	      5.08083139	     -2.36102902	     71.40447781	    -11.88700237	     30.98188521	     81.29000211	     58.42505657	      0.00000000	      0.00000000	     49.75645052	    -42.92758502	     12.88977858	    103.15018007	     54.33947158	      0.00000000	      0.00000000
      7.53000000	    -31.86832431	     -0.51813919	      0.65698998	      0.36137889	      1.20066742	     -0.22384334	      0.00000000	      0.50000000	      0.00000000	      0.25000000	     70.95817519	     -1.80776696	     -0.44301925	     90.65871108	      1.58229300	    -22.56486750	    -15.89226654	      0.00000000	      0.00000000	     56.09505358	     -3.66703596	      2.49263898	     38.78576700	      0.67693934	     -9.51132517	    -10.11261159	      0.00000000	      0.00000000	    -62.92491419	      5.48517377	     -1.88039744	     71.75817291	    -11.99263354	     31.34053935	     81.23969621	     58.46496579	      0.00000000	      0.00000000	     49.56679111	    -42.77374181	     12.87027625	    103.01297421	     54.32829020	      0.00000000	      0.00000000
      7.53500000	    -31.78197468	     -0.77549076	      0.56753807	      0.36049859	      1.20003921	     -0.22478851	      0.00000000	      0.50000000	      0.00000000	      0.25000000	     72.10838517	     -1.71978461	     -0.62103466	     92.43823694	      1.61335159	    -21.02187711	    -16.01424503	      0.00000000	      0.00000000	     54.55747378	     -3.93897080	      2.20094592	     36.47902070	      0.63667902	    -10.89874947	     -9.76747638	      0.00000000	      0.00000000	    -62.93553909	      5.92203829	     -1.46964256	     72.25717156	    -12.17659206	     31.87183361	     81.12185661	     58.51315578	      0.00000000	      0.00000000	     49.49493561	    -42.55594502	     12.91853826	    102.81118353	     54.31429142	      0.00000000	      0.00000000
